<svg width="20" height="20" viewBox="0 0 20 20" fill="none" xmlns="http://www.w3.org/2000/svg">
<path d="M9.99998 1.6L10.9405 1.65282L11.8692 1.8106L12.7743 2.07138L13.6446 2.43186L14.469 2.88752L15.2373 3.43261L15.9397 4.0603L16.5674 4.76268L17.1125 5.53093L17.5681 6.35537L17.9286 7.22565L18.1894 8.13082L18.3472 9.0595L18.4 10L18.3472 10.9405L18.1894 11.8692L17.9286 12.7743L17.5681 13.6446L17.1125 14.4691L16.5674 15.2373L15.9397 15.9397L15.2373 16.5674L14.469 17.1125L13.6446 17.5681L12.7743 17.9286L11.8692 18.1894L10.9405 18.3472L9.99998 18.4L9.05947 18.3472L8.1308 18.1894L7.22563 17.9286L6.35535 17.5681L5.53091 17.1125L4.76266 16.5674L4.06028 15.9397L3.43259 15.2373L2.88749 14.4691L2.43184 13.6446L2.07136 12.7743L1.81058 11.8692L1.65279 10.9405L1.59998 10L1.65279 9.0595L1.81058 8.13082L2.07136 7.22565L2.43184 6.35537L2.88749 5.53093L3.43259 4.76268L4.06028 4.0603L4.76266 3.43261L5.53091 2.88752L6.35535 2.43186L7.22563 2.07138L8.1308 1.8106L9.05947 1.65282L9.99998 1.6Z" fill="#C2CCDE" fill-opacity="0.25"/>
<path d="M9.99998 1.6L10.056 0.601572C10.0187 0.599474 9.98126 0.599474 9.9439 0.601572L9.99998 1.6ZM10.9405 1.65282L11.108 0.666945C11.0711 0.660678 11.0339 0.656487 10.9965 0.654389L10.9405 1.65282ZM11.8692 1.8106L12.146 0.849687C12.11 0.83933 12.0735 0.830999 12.0367 0.824733L11.8692 1.8106ZM12.7743 2.07138L13.157 1.1475C13.1224 1.13318 13.0871 1.12082 13.0512 1.11046L12.7743 2.07138ZM13.6446 2.43186L14.1283 1.55664C14.0956 1.53854 14.0618 1.5223 14.0273 1.50798L13.6446 2.43186ZM14.469 2.88752L15.0477 2.07195C15.0172 2.05031 14.9855 2.03039 14.9528 2.01229L14.469 2.88752ZM15.2373 3.43261L15.9036 2.68697C15.8757 2.66204 15.8465 2.6387 15.816 2.61705L15.2373 3.43261ZM15.9397 4.0603L16.6853 3.39395C16.6604 3.36606 16.6339 3.33959 16.606 3.31466L15.9397 4.0603ZM16.5674 4.76268L17.3829 4.18401C17.3613 4.1535 17.3379 4.12423 17.313 4.09634L16.5674 4.76268ZM17.1125 5.53093L17.9877 5.04721C17.9696 5.01447 17.9497 4.98277 17.928 4.95226L17.1125 5.53093ZM17.5681 6.35537L18.492 5.97269C18.4777 5.93813 18.4614 5.9044 18.4433 5.87166L17.5681 6.35537ZM17.9286 7.22565L18.8895 6.94882C18.8792 6.91287 18.8668 6.87753 18.8525 6.84297L17.9286 7.22565ZM18.1894 8.13082L19.1752 7.96332C19.169 7.92644 19.1606 7.88993 19.1503 7.85399L18.1894 8.13082ZM18.3472 9.0595L19.3456 9.00343C19.3435 8.96607 19.3393 8.92887 19.333 8.89199L18.3472 9.0595ZM18.4 10L19.3984 10.0561C19.4005 10.0187 19.4005 9.98128 19.3984 9.94393L18.4 10ZM18.3472 10.9405L19.333 11.108C19.3393 11.0711 19.3435 11.0339 19.3456 10.9966L18.3472 10.9405ZM18.1894 11.8692L19.1503 12.146C19.1606 12.1101 19.169 12.0736 19.1752 12.0367L18.1894 11.8692ZM17.9286 12.7743L18.8525 13.157C18.8668 13.1225 18.8792 13.0871 18.8895 13.0512L17.9286 12.7743ZM17.5681 13.6446L18.4433 14.1283C18.4614 14.0956 18.4777 14.0619 18.492 14.0273L17.5681 13.6446ZM17.1125 14.4691L17.928 15.0477C17.9497 15.0172 17.9696 14.9855 17.9877 14.9528L17.1125 14.4691ZM16.5674 15.2373L17.313 15.9037C17.3379 15.8758 17.3613 15.8465 17.3829 15.816L16.5674 15.2373ZM15.9397 15.9397L16.606 16.6853C16.6339 16.6604 16.6604 16.6339 16.6853 16.606L15.9397 15.9397ZM15.2373 16.5674L15.816 17.3829C15.8465 17.3613 15.8757 17.338 15.9036 17.313L15.2373 16.5674ZM14.469 17.1125L14.9528 17.9877C14.9855 17.9696 15.0172 17.9497 15.0477 17.928L14.469 17.1125ZM13.6446 17.5681L14.0273 18.492C14.0618 18.4777 14.0956 18.4615 14.1283 18.4434L13.6446 17.5681ZM12.7743 17.9286L13.0512 18.8895C13.0871 18.8792 13.1224 18.8668 13.157 18.8525L12.7743 17.9286ZM11.8692 18.1894L12.0367 19.1753C12.0735 19.169 12.11 19.1607 12.146 19.1503L11.8692 18.1894ZM10.9405 18.3472L10.9965 19.3456C11.0339 19.3435 11.0711 19.3393 11.108 19.333L10.9405 18.3472ZM9.99998 18.4L9.9439 19.3984C9.98126 19.4005 10.0187 19.4005 10.056 19.3984L9.99998 18.4ZM9.05947 18.3472L8.89197 19.333C8.92885 19.3393 8.96605 19.3435 9.0034 19.3456L9.05947 18.3472ZM8.1308 18.1894L7.85396 19.1503C7.88991 19.1607 7.92641 19.169 7.96329 19.1753L8.1308 18.1894ZM7.22563 17.9286L6.84295 18.8525C6.87751 18.8668 6.91285 18.8792 6.9488 18.8895L7.22563 17.9286ZM6.35535 17.5681L5.87163 18.4434C5.90438 18.4615 5.93811 18.4777 5.97267 18.492L6.35535 17.5681ZM5.53091 17.1125L4.95224 17.928C4.98275 17.9497 5.01445 17.9696 5.04719 17.9877L5.53091 17.1125ZM4.76266 16.5674L4.09631 17.313C4.12421 17.338 4.15348 17.3613 4.18399 17.3829L4.76266 16.5674ZM4.06028 15.9397L3.31464 16.606C3.33956 16.6339 3.36604 16.6604 3.39393 16.6853L4.06028 15.9397ZM3.43259 15.2373L2.61703 15.816C2.63868 15.8465 2.66202 15.8758 2.68695 15.9037L3.43259 15.2373ZM2.88749 14.4691L2.01227 14.9528C2.03036 14.9855 2.05028 15.0172 2.07193 15.0477L2.88749 14.4691ZM2.43184 13.6446L1.50796 14.0273C1.52227 14.0619 1.53852 14.0956 1.55661 14.1283L2.43184 13.6446ZM2.07136 12.7743L1.11044 13.0512C1.12079 13.0871 1.13316 13.1225 1.14748 13.157L2.07136 12.7743ZM1.81058 11.8692L0.82471 12.0367C0.830977 12.0736 0.839308 12.1101 0.849664 12.146L1.81058 11.8692ZM1.65279 10.9405L0.654366 10.9966C0.656464 11.0339 0.660656 11.0711 0.666922 11.108L1.65279 10.9405ZM1.59998 10L0.601549 9.94393C0.599451 9.98128 0.599451 10.0187 0.601549 10.0561L1.59998 10ZM1.65279 9.0595L0.666922 8.89199C0.660656 8.92887 0.656464 8.96607 0.654366 9.00343L1.65279 9.0595ZM1.81058 8.13082L0.849664 7.85399C0.839308 7.88993 0.830977 7.92643 0.82471 7.96332L1.81058 8.13082ZM2.07136 7.22565L1.14748 6.84297C1.13316 6.87753 1.12079 6.91287 1.11044 6.94882L2.07136 7.22565ZM2.43184 6.35537L1.55661 5.87166C1.53852 5.9044 1.52227 5.93813 1.50796 5.97269L2.43184 6.35537ZM2.88749 5.53093L2.07193 4.95226C2.05028 4.98277 2.03036 5.01447 2.01227 5.04721L2.88749 5.53093ZM3.43259 4.76268L2.68695 4.09634C2.66202 4.12423 2.63868 4.1535 2.61703 4.18401L3.43259 4.76268ZM4.06028 4.0603L3.39393 3.31466C3.36604 3.33959 3.33956 3.36606 3.31464 3.39395L4.06028 4.0603ZM4.76266 3.43261L4.18399 2.61705C4.15348 2.6387 4.12421 2.66204 4.09631 2.68697L4.76266 3.43261ZM5.53091 2.88752L5.04719 2.01229C5.01445 2.03039 4.98274 2.05031 4.95223 2.07195L5.53091 2.88752ZM6.35535 2.43186L5.97267 1.50798C5.93811 1.5223 5.90438 1.53854 5.87163 1.55664L6.35535 2.43186ZM7.22563 2.07138L6.9488 1.11046C6.91285 1.12082 6.87751 1.13318 6.84295 1.1475L7.22563 2.07138ZM8.1308 1.8106L7.96329 0.824733C7.92641 0.830999 7.88991 0.83933 7.85396 0.849687L8.1308 1.8106ZM9.05947 1.65282L9.0034 0.654389C8.96605 0.656487 8.92885 0.660678 8.89197 0.666945L9.05947 1.65282ZM9.9439 2.59843L10.8844 2.65124L10.9965 0.654389L10.056 0.601572L9.9439 2.59843ZM10.773 2.63869L11.7016 2.79648L12.0367 0.824733L11.108 0.666945L10.773 2.63869ZM11.5923 2.77152L12.4975 3.0323L13.0512 1.11046L12.146 0.849687L11.5923 2.77152ZM12.3916 2.99526L13.2619 3.35574L14.0273 1.50798L13.157 1.1475L12.3916 2.99526ZM13.1609 3.30708L13.9853 3.76274L14.9528 2.01229L14.1283 1.55664L13.1609 3.30708ZM13.8904 3.70308L14.6586 4.24817L15.816 2.61705L15.0477 2.07195L13.8904 3.70308ZM14.5709 4.17826L15.2733 4.80594L16.606 3.31466L15.9036 2.68697L14.5709 4.17826ZM15.194 4.72665L15.8217 5.42903L17.313 4.09634L16.6853 3.39395L15.194 4.72665ZM15.7518 5.34135L16.2969 6.1096L17.928 4.95226L17.3829 4.18401L15.7518 5.34135ZM16.2372 6.01465L16.6929 6.83909L18.4433 5.87166L17.9877 5.04721L16.2372 6.01465ZM16.6442 6.73806L17.0047 7.60834L18.8525 6.84297L18.492 5.97269L16.6442 6.73806ZM16.9677 7.50249L17.2285 8.40766L19.1503 7.85399L18.8895 6.94882L16.9677 7.50249ZM17.2035 8.29833L17.3613 9.227L19.333 8.89199L19.1752 7.96332L17.2035 8.29833ZM17.3487 9.11557L17.4015 10.0561L19.3984 9.94393L19.3456 9.00343L17.3487 9.11557ZM17.4015 9.94393L17.3487 10.8844L19.3456 10.9966L19.3984 10.0561L17.4015 9.94393ZM17.3613 10.773L17.2035 11.7017L19.1752 12.0367L19.333 11.108L17.3613 10.773ZM17.2285 11.5923L16.9677 12.4975L18.8895 13.0512L19.1503 12.146L17.2285 11.5923ZM17.0047 12.3917L16.6442 13.2619L18.492 14.0273L18.8525 13.157L17.0047 12.3917ZM16.6929 13.1609L16.2372 13.9853L17.9877 14.9528L18.4433 14.1283L16.6929 13.1609ZM16.2969 13.8904L15.7518 14.6586L17.3829 15.816L17.928 15.0477L16.2969 13.8904ZM15.8217 14.571L15.194 15.2733L16.6853 16.606L17.313 15.9037L15.8217 14.571ZM15.2733 15.1941L14.5709 15.8217L15.9036 17.313L16.606 16.6853L15.2733 15.1941ZM14.6586 15.7518L13.8904 16.2969L15.0477 17.928L15.816 17.3829L14.6586 15.7518ZM13.9853 16.2373L13.1609 16.6929L14.1283 18.4434L14.9528 17.9877L13.9853 16.2373ZM13.2619 16.6443L12.3916 17.0047L13.157 18.8525L14.0273 18.492L13.2619 16.6443ZM12.4975 16.9677L11.5923 17.2285L12.146 19.1503L13.0512 18.8895L12.4975 16.9677ZM11.7016 17.2035L10.773 17.3613L11.108 19.333L12.0367 19.1753L11.7016 17.2035ZM10.8844 17.3488L9.9439 17.4016L10.056 19.3984L10.9965 19.3456L10.8844 17.3488ZM10.056 17.4016L9.11554 17.3488L9.0034 19.3456L9.9439 19.3984L10.056 17.4016ZM9.22698 17.3613L8.2983 17.2035L7.96329 19.1753L8.89197 19.333L9.22698 17.3613ZM8.40764 17.2285L7.50247 16.9677L6.9488 18.8895L7.85396 19.1503L8.40764 17.2285ZM7.60831 17.0047L6.73804 16.6443L5.97267 18.492L6.84295 18.8525L7.60831 17.0047ZM6.83907 16.6929L6.01463 16.2373L5.04719 17.9877L5.87163 18.4434L6.83907 16.6929ZM6.10958 16.2969L5.34133 15.7518L4.18399 17.3829L4.95224 17.928L6.10958 16.2969ZM5.42901 15.8217L4.72662 15.1941L3.39393 16.6853L4.09631 17.313L5.42901 15.8217ZM4.80592 15.2733L4.17823 14.571L2.68695 15.9037L3.31464 16.606L4.80592 15.2733ZM4.24815 14.6586L3.70305 13.8904L2.07193 15.0477L2.61703 15.816L4.24815 14.6586ZM3.76272 13.9853L3.30706 13.1609L1.55661 14.1283L2.01227 14.9528L3.76272 13.9853ZM3.35572 13.2619L2.99524 12.3917L1.14748 13.157L1.50796 14.0273L3.35572 13.2619ZM3.03227 12.4975L2.7715 11.5923L0.849664 12.146L1.11044 13.0512L3.03227 12.4975ZM2.79645 11.7017L2.63866 10.773L0.666922 11.108L0.82471 12.0367L2.79645 11.7017ZM2.65122 10.8844L2.5984 9.94393L0.601549 10.0561L0.654366 10.9966L2.65122 10.8844ZM2.5984 10.0561L2.65122 9.11557L0.654366 9.00343L0.601549 9.94393L2.5984 10.0561ZM2.63866 9.227L2.79645 8.29833L0.82471 7.96332L0.666922 8.89199L2.63866 9.227ZM2.7715 8.40766L3.03227 7.50249L1.11044 6.94882L0.849664 7.85399L2.7715 8.40766ZM2.99524 7.60834L3.35572 6.73806L1.50796 5.97269L1.14748 6.84297L2.99524 7.60834ZM3.30706 6.83909L3.76272 6.01465L2.01227 5.04721L1.55661 5.87166L3.30706 6.83909ZM3.70305 6.1096L4.24815 5.34136L2.61703 4.18401L2.07193 4.95226L3.70305 6.1096ZM4.17823 5.42903L4.80592 4.72665L3.31464 3.39395L2.68695 4.09634L4.17823 5.42903ZM4.72662 4.80594L5.42901 4.17826L4.09631 2.68697L3.39393 3.31466L4.72662 4.80594ZM5.34133 4.24817L6.10958 3.70308L4.95223 2.07195L4.18399 2.61705L5.34133 4.24817ZM6.01463 3.76274L6.83907 3.30708L5.87163 1.55664L5.04719 2.01229L6.01463 3.76274ZM6.73804 3.35574L7.60831 2.99526L6.84295 1.1475L5.97267 1.50798L6.73804 3.35574ZM7.50247 3.0323L8.40764 2.77152L7.85396 0.849687L6.9488 1.11046L7.50247 3.0323ZM8.29831 2.79648L9.22698 2.63869L8.89197 0.666945L7.96329 0.824733L8.29831 2.79648ZM9.11554 2.65124L10.056 2.59843L9.9439 0.601572L9.0034 0.654389L9.11554 2.65124Z" fill="#43A048"/>
</svg>
