<svg width="24" height="25" viewBox="0 0 24 25" fill="none" xmlns="http://www.w3.org/2000/svg">
<path d="M15.0281 5.83506C16.1027 5.33112 17.4228 5.52305 18.3105 6.41074C19.1981 7.29842 19.3901 8.61845 18.8861 9.6931C20.0024 10.0966 20.8 11.1658 20.8 12.4211C20.8 13.6765 20.0024 14.7456 18.8861 15.1492C19.3901 16.2238 19.1981 17.5439 18.3105 18.4316C17.4228 19.3192 16.1027 19.5112 15.0281 19.0072C14.6245 20.1235 13.5554 20.9211 12.3 20.9211C11.0447 20.9211 9.97555 20.1235 9.57201 19.0072C8.49736 19.5112 7.17732 19.3192 6.28964 18.4316C5.40196 17.5439 5.21002 16.2238 5.71397 15.1492C4.59774 14.7456 3.80005 13.6765 3.80005 12.4211C3.80005 11.1658 4.59774 10.0966 5.71397 9.6931C5.21002 8.61845 5.40196 7.29842 6.28964 6.41074C7.17732 5.52305 8.49736 5.33112 9.572 5.83506C9.97555 4.71883 11.0447 3.92114 12.3 3.92114C13.5554 3.92114 14.6245 4.71883 15.0281 5.83506Z" fill="#C2CCDE" fill-opacity="0.25"/>
<path d="M9.15544 11.0711C8.74272 10.6584 8.74272 9.98924 9.15544 9.57653C9.56815 9.16381 10.2373 9.16381 10.65 9.57653C11.0627 9.98924 11.0627 10.6584 10.65 11.0711C10.2373 11.4838 9.56815 11.4838 9.15544 11.0711Z" fill="#C2CCDE" fill-opacity="0.25"/>
<path d="M13.3402 15.2559C12.9275 14.8432 12.9275 14.174 13.3402 13.7613C13.7529 13.3486 14.4221 13.3486 14.8348 13.7613C15.2475 14.174 15.2475 14.8432 14.8348 15.2559C14.4221 15.6686 13.7529 15.6686 13.3402 15.2559Z" fill="#C2CCDE" fill-opacity="0.25"/>
<path d="M15.2084 9.05343L8.63234 15.6295M18.3105 6.41074C17.4228 5.52305 16.1027 5.33112 15.0281 5.83506C14.6245 4.71883 13.5554 3.92114 12.3 3.92114C11.0447 3.92114 9.97555 4.71883 9.572 5.83506C8.49736 5.33112 7.17732 5.52305 6.28964 6.41074C5.40196 7.29842 5.21002 8.61845 5.71397 9.6931C4.59774 10.0966 3.80005 11.1658 3.80005 12.4211C3.80005 13.6765 4.59774 14.7456 5.71397 15.1492C5.21002 16.2238 5.40196 17.5439 6.28964 18.4316C7.17732 19.3192 8.49736 19.5112 9.57201 19.0072C9.97555 20.1235 11.0447 20.9211 12.3 20.9211C13.5554 20.9211 14.6245 20.1235 15.0281 19.0072C16.1027 19.5112 17.4228 19.3192 18.3105 18.4316C19.1981 17.5439 19.3901 16.2238 18.8861 15.1492C20.0024 14.7456 20.8 13.6765 20.8 12.4211C20.8 11.1658 20.0024 10.0966 18.8861 9.6931C19.3901 8.61845 19.1981 7.29842 18.3105 6.41074ZM10.65 11.0711C10.2373 11.4838 9.56815 11.4838 9.15544 11.0711C8.74272 10.6584 8.74272 9.98924 9.15544 9.57653C9.56815 9.16381 10.2373 9.16381 10.65 9.57653C11.0627 9.98924 11.0627 10.6584 10.65 11.0711ZM14.8348 15.2559C14.4221 15.6686 13.7529 15.6686 13.3402 15.2559C12.9275 14.8432 12.9275 14.174 13.3402 13.7613C13.7529 13.3486 14.4221 13.3486 14.8348 13.7613C15.2475 14.174 15.2475 14.8432 14.8348 15.2559Z" stroke="#414141" stroke-linecap="round" stroke-linejoin="round"/>
</svg>
