<svg width="17" height="13" viewBox="0 0 17 13" fill="none" xmlns="http://www.w3.org/2000/svg">
<path d="M13.0384 1.39221L8.54807 4.89653L3.95508 1.39221V1.39316L3.96063 1.39789V6.30488L8.49628 9.88497L13.0384 6.44316V1.39221Z" fill="#F44336"/>
<path d="M14.2176 0.539789L13.0383 1.39219V6.44314L16.749 3.59423V1.87806C16.749 1.87806 16.2986 -0.573068 14.2176 0.539789Z" fill="#FDD835"/>
<path d="M13.0383 6.44324V12.9944H15.8824C15.8824 12.9944 16.6916 12.9111 16.7499 11.9886V3.59433L13.0383 6.44324Z" fill="#43A048"/>
<path d="M3.96084 13V6.30482L3.95508 6.30008L3.96084 13Z" fill="#F44336"/>
<path d="M3.9551 1.39322L2.78234 0.545551C0.701345 -0.567306 0.25 1.88287 0.25 1.88287V3.59904L3.9551 6.3002V1.39322Z" fill="#B71B1C"/>
<path d="M3.95508 1.39313V6.30012L3.96084 6.30485V1.39786L3.95508 1.39313Z" fill="#F44336"/>
<path d="M0.25 3.59991V11.9942C0.307343 12.9176 1.11754 13 1.11754 13H3.96158L3.9551 6.30013L0.25 3.59991Z" fill="#304FFE"/>
</svg>
