<svg width="24" height="25" viewBox="0 0 24 25" fill="none" xmlns="http://www.w3.org/2000/svg">
<path d="M5.21184 6.36287C4.42419 7.15053 3.98169 8.21881 3.98169 9.33272C3.98169 10.4466 4.42419 11.5149 5.21184 12.3026L11.5758 18.6665C11.8101 18.9008 12.19 18.9008 12.4243 18.6665L18.7883 12.3026C19.5759 11.5149 20.0184 10.4466 20.0184 9.33272C20.0184 8.21881 19.5759 7.15053 18.7883 6.36287C18.0006 5.57522 16.9324 5.13272 15.8184 5.13272C14.7045 5.13272 13.6362 5.57522 12.8486 6.36287L12.2074 7.0041C12.0929 7.11859 11.9073 7.11859 11.7928 7.00409L11.1515 6.36287C10.3639 5.57522 9.2956 5.13272 8.18169 5.13272C7.06778 5.13272 5.99949 5.57522 5.21184 6.36287Z" fill="#C2CCDE" fill-opacity="0.25" stroke="#414141" stroke-linecap="round" stroke-linejoin="round"/>
</svg>
