<svg width="24" height="25" viewBox="0 0 24 25" fill="none" xmlns="http://www.w3.org/2000/svg">
<path d="M18 21.1211H6.00005C5.33731 21.1211 4.80005 20.5839 4.80005 19.9211C4.80005 17.9362 6.03149 16.1596 7.89014 15.463L8.25916 15.3247C10.6712 14.4207 13.3289 14.4207 15.7409 15.3247L16.11 15.463C17.9686 16.1596 19.2 17.9362 19.2 19.9211C19.2 20.5839 18.6628 21.1211 18 21.1211Z" fill="#C2CCDE" fill-opacity="0.25"/>
<path d="M10.1705 11.7813C11.3189 12.3712 12.6812 12.3712 13.8296 11.7813C14.8984 11.2323 15.6641 10.2324 15.9155 9.05748L15.9826 8.74391C16.2397 7.54241 15.9651 6.28843 15.2294 5.30436L15.1216 5.16025C14.3858 4.17604 13.2289 3.5965 12 3.5965C10.7712 3.5965 9.61428 4.17604 8.87846 5.16025L8.77072 5.30436C8.035 6.28843 7.76038 7.54241 8.01748 8.74391L8.08457 9.05748C8.33598 10.2324 9.10172 11.2323 10.1705 11.7813Z" fill="#C2CCDE" fill-opacity="0.25"/>
<path d="M18 21.1211H6.00005C5.33731 21.1211 4.80005 20.5839 4.80005 19.9211C4.80005 17.9362 6.03149 16.1596 7.89014 15.463L8.25916 15.3247C10.6712 14.4207 13.3289 14.4207 15.7409 15.3247L16.11 15.463C17.9686 16.1596 19.2 17.9362 19.2 19.9211C19.2 20.5839 18.6628 21.1211 18 21.1211Z" stroke="#414141" stroke-linecap="round" stroke-linejoin="round"/>
<path d="M10.1705 11.7813C11.3189 12.3712 12.6812 12.3712 13.8296 11.7813C14.8984 11.2323 15.6641 10.2324 15.9155 9.05748L15.9826 8.74391C16.2397 7.54241 15.9651 6.28843 15.2294 5.30436L15.1216 5.16025C14.3858 4.17604 13.2289 3.5965 12 3.5965C10.7712 3.5965 9.61428 4.17604 8.87846 5.16025L8.77072 5.30436C8.035 6.28843 7.76038 7.54241 8.01748 8.74391L8.08457 9.05748C8.33598 10.2324 9.10172 11.2323 10.1705 11.7813Z" stroke="#414141" stroke-linecap="round" stroke-linejoin="round"/>
</svg>
