<svg width="40" height="41" viewBox="0 0 40 41" fill="none" xmlns="http://www.w3.org/2000/svg">
<path fill-rule="evenodd" clip-rule="evenodd" d="M6 11.1212V29.1212C6 30.778 7.34315 32.1212 9 32.1212H31C32.6569 32.1212 34 30.778 34 29.1212V15.1212C34 13.4643 32.6569 12.1212 31 12.1212H11.25C10.6977 12.1212 10.25 11.6734 10.25 11.1212C10.25 10.5689 10.6977 10.1212 11.25 10.1212H29.8293C29.4175 8.95596 28.3062 8.12115 27 8.12115H9C7.34315 8.12115 6 9.4643 6 11.1212ZM26 21.6212C26 20.5166 26.8954 19.6212 28 19.6212C29.1046 19.6212 30 20.5166 30 21.6212C30 22.7257 29.1046 23.6212 28 23.6212C26.8954 23.6212 26 22.7257 26 21.6212Z" fill="white"/>
</svg>
